<svg xmlns="http://www.w3.org/2000/svg" viewBox="0 0 10.3 220.26"><path d="M1.55,30.15c-.36-2-.73-3.73-.94-5.45a31.36,31.36,0,0,1-.27-4.84c0-.33.94-.88,1.42-.85s1.33.67,1.34,1c0,2.85-.11,5.71-.19,8.57a7.23,7.23,0,0,1-.05,1.48c-.06.21-.54.39-.82.38S1.58,30.17,1.55,30.15Z" transform="translate(0 -0.01)"/><path d="M2.54,38c1,.34.94,1.2,1,1.93a35.42,35.42,0,0,1,0,4.72,23.38,23.38,0,0,0-.25,3.21c.08.79-.21,1.2-1,1.47a.47.47,0,0,1-.39-.2c-.44-2.53-.44-4.9-.86-7.43-.09-.5-.24-1-.37-1.49A1.92,1.92,0,0,1,2.54,38Z" transform="translate(0 -0.01)"/><path d="M1,9.52c-.22-1.47-.4-3.95-.56-5a18.67,18.67,0,0,1-.42-3A2.52,2.52,0,0,1,.85,0c.12-.12.66.21,1,.34,1.45.56,1,1.83,1,2.93s-.38,4.26-.3,5.42c.1,1.35-.2,1.53-1.4,1C1,9.71.9,9.37,1,9.52Z" transform="translate(0 -0.01)"/><path d="M2.93,87.17c-.39-2-.77-3.73-1-5.45a31.33,31.33,0,0,1-.33-4.84c0-.32.93-.89,1.41-.85s1.34.65,1.35,1c.07,2.86,0,5.72-.08,8.58a6.62,6.62,0,0,1,0,1.48c-.05.2-.53.39-.81.39S3,87.19,2.93,87.17Z" transform="translate(0 -0.01)"/><path d="M4,95c1,.33,1,1.19,1,1.92a35.39,35.39,0,0,1,0,4.72,23.25,23.25,0,0,0-.2,3.21c.09.79-.2,1.2-1,1.48-.11,0-.38-.1-.39-.19-.48-2.53-.5-4.89-1-7.42-.1-.5-.26-1-.38-1.48A1.91,1.91,0,0,1,4,95Z" transform="translate(0 -0.01)"/><path d="M2.11,66.54c-.25-1.47-.46-3.94-.63-5a19.76,19.76,0,0,1-.46-3,2.56,2.56,0,0,1,.84-1.46c.12-.12.66.21,1,.33,1.46.54,1,1.82,1,2.92s-.33,4.26-.24,5.42c.12,1.35-.18,1.53-1.38,1.07C2.1,66.73,2,66.39,2.11,66.54Z" transform="translate(0 -0.01)"/><path d="M5,144.16c-.41-2-.82-3.72-1.08-5.43a34.2,34.2,0,0,1-.39-4.84c0-.32.93-.9,1.41-.87s1.34.63,1.36,1c.1,2.85,0,5.71,0,8.57a6.17,6.17,0,0,1,0,1.49c0,.2-.52.4-.8.39S5,144.18,5,144.16Z" transform="translate(0 -0.01)"/><path d="M6.2,152c1,.31,1,1.18,1,1.9a35.36,35.36,0,0,1,.08,4.72,23.41,23.41,0,0,0-.17,3.22c.1.78-.19,1.2-1,1.49a.45.45,0,0,1-.4-.19c-.5-2.52-.56-4.88-1-7.4-.1-.5-.26-1-.4-1.48A1.91,1.91,0,0,1,6.2,152Z" transform="translate(0 -0.01)"/><path d="M3.93,123.54c-.26-1.46-.5-3.93-.68-5a19.94,19.94,0,0,1-.5-3,2.61,2.61,0,0,1,.82-1.47c.12-.13.66.19,1,.32,1.47.52,1,1.8,1.06,2.9s-.28,4.27-.17,5.42c.13,1.36-.16,1.54-1.37,1.09C3.93,123.74,3.85,123.39,3.93,123.54Z" transform="translate(0 -0.01)"/><path d="M7.8,201.12c-.44-2-.87-3.7-1.15-5.42a34,34,0,0,1-.45-4.83c0-.32.92-.91,1.39-.89S9,190.6,9,191c.14,2.86.1,5.72.13,8.58a6.66,6.66,0,0,1,0,1.48c0,.21-.52.41-.8.41S7.83,201.14,7.8,201.12Z" transform="translate(0 -0.01)"/><path d="M9.08,208.93c1,.31,1,1.17,1.07,1.9a35.2,35.2,0,0,1,.13,4.71,21.88,21.88,0,0,0-.12,3.22c.1.79-.18,1.2-1,1.51a.47.47,0,0,1-.4-.19c-.53-2.51-.62-4.87-1.14-7.39-.1-.5-.28-1-.42-1.47A1.93,1.93,0,0,1,9.08,208.93Z" transform="translate(0 -0.01)"/><path d="M6.46,180.52c-.28-1.46-.54-3.93-.74-5a17.82,17.82,0,0,1-.53-3,2.51,2.51,0,0,1,.8-1.48c.11-.13.66.19,1,.31,1.47.5,1,1.79,1.1,2.88s-.23,4.28-.11,5.43c.15,1.35-.14,1.54-1.36,1.1C6.46,180.71,6.38,180.37,6.46,180.52Z" transform="translate(0 -0.01)"/></svg>