<svg xmlns="http://www.w3.org/2000/svg" viewBox="0 0 11.35 227.95"><path d="M9.12,184.84a5.13,5.13,0,0,1,0-.87c0-.3-.13-.71-.16-1-.06-.54-.19-1.07-.23-1.62l-.16-2.3-.18-3.52-.19-4.09V171L8,165.4c-.06-1.06-.2-3.66-.19-3.9s-.2-2.73-.22-3.13c0-.16-.15-1.23-.21-2.11-1,0-1.82.26-2.77.26.17,2.78.34,5.57.5,8.28l.82,15.6c0,1.4-.31,2.82-.27,4.18a2.07,2.07,0,0,0,.31,1c.21.3.16.4.31.5a1.21,1.21,0,0,0,.81.12C8,186.12,9.23,185.52,9.12,184.84Z"/><path d="M6.84,142.05l-.13-2.93v-.39c0-.61-.06-1.31-.11-2-.36-8-.63-15.92-1-23.88-.13-2.79-.29-5.54-.33-8.36-.08-5-.23-10-.37-15-.06-2.37-.25-3.93-.21-7.1,0-1.38,0-4,0-5.33-.11-2.51-.16-3.77-.27-6.29C4.16,65.13,4,59.53,3.82,53.94c0-1.47,0-2.94,0-4.41,0-2.4.05-4.47-.12-6.75-.16-2.1-.28-3.92-.26-6.26.05-3.77-.12-7.51-.17-11.31,0-3-.08-5.84-.12-8.68,0-1.43,0-2.84,0-4.28V10.07l0-.83a15.72,15.72,0,0,0,.11-1.93,39.18,39.18,0,0,1,.11-4.69C3.38,1.93,3,.27,2.53.07,2.27,0,1.94.14,1.67,0,1.05-.2,0,.84,0,1.77s.11,2,.13,2.95,0,2.06,0,3.09c0,.4.1.81.16,1.21,0,.21.07.41.09.61l0,.3v.51c0,2.28.14,4.49.06,6.94C.4,20.9.61,24.65.65,28.3.78,36.35.91,44.55,1,52.63,1.08,57.77,1.37,63,1.51,68c.41,14,.78,27.92,1.38,41.87.14,3.47.27,7,.4,10.43.18,4.72.42,8.26.42,12.89v.7h0V134c0,1.37.07,2.85.13,4.32.18,2.9.3,5.53.38,8.44a6,6,0,0,0,2.88.84c0-.76-.05-1.45-.11-2.29C6.92,144.28,6.86,143.16,6.84,142.05Z"/><path d="M8.55,181a8.7,8.7,0,0,1,0-1.16c0-.51.06-1.48,0-2-.15-2.22-.23-3.33-.38-5.55Q7.73,164,7.29,155.6c-.07-1.47-.09-2.95-.11-4.41,0-2.4,0-4.47-.27-6.75-.21-2.09-.37-3.91-.39-6.25,0-3.77-.29-7.51-.43-11.3-.11-3.24-.22-6.29-.32-9.35-.18-2.54-.31-5.09-.41-7.7A7.18,7.18,0,0,1,3.2,111.4c0,2,0,4.09,0,6.13l0,.18c0,.46,0,.93,0,1.41,0,3.53.24,7.26.38,10.91.3,8.05.61,16.24.91,24.32.16,5.14.57,10.35.81,15.36L5.88,181A4.14,4.14,0,0,1,8.55,181Z"/><path d="M9.36,206.86a1.42,1.42,0,0,1-1.48.28,2.76,2.76,0,0,1-1.55-1.81c-.14-1,.43-2.13.43-3.19,0-1.48-.29-2.95-.41-4.42-.07-1,0-1.93-.15-2.87a15.74,15.74,0,0,1-.1-2.57,6.51,6.51,0,0,0,0-1.17A2.86,2.86,0,0,1,5.88,190c.18-1,2.22-1.3,2.91-.71.53.45.37,1.56.37,2.18,0,.89-.06,1.78,0,2.66.13,2.14,0,4.28.11,6.42,0,.91.24,1.79.35,2.69s.16,1.71.21,2.56A1.28,1.28,0,0,1,9.36,206.86Z"/><path d="M9.35,220.42a3.42,3.42,0,0,1-1.06,0,1.29,1.29,0,0,1-.74-.4A2.17,2.17,0,0,1,7,217.9a9.2,9.2,0,0,0,0-2.87,9.16,9.16,0,0,1,0-3.09,2.12,2.12,0,0,1,.71-1.18c.6-.47,1.36-.62,1.81.13a5.19,5.19,0,0,1,.45,2.91c-.12,1.34.54,2.75.79,4.14a2,2,0,0,1-.21,1.34A2.53,2.53,0,0,1,9.35,220.42Z"/><path d="M9.27,228a3.3,3.3,0,0,1-.84-.34,1.92,1.92,0,0,1-.27-3.27c.62-.54,2.25-.63,2.72.14a4.06,4.06,0,0,1,.45,1.32C11.44,226.91,11.12,227.85,9.27,228Z"/></svg>