<svg xmlns="http://www.w3.org/2000/svg" viewBox="0 0 28.42 56.03"><path d="M.94,17.18C.7,16,.45,15,.32,14.06a13.54,13.54,0,0,1-.13-2.77c0-.18.72-.48,1.08-.46s1,.4,1,.62c0,1.62-.17,3.25-.28,4.88a2.93,2.93,0,0,1-.06.84c0,.12-.41.22-.62.2A.64.64,0,0,1,.94,17.18Z" transform="translate(0 0)" fill="#020202"/><path d="M1.54,21.66c.72.21.68.7.72,1.12a15.19,15.19,0,0,1-.12,2.69,9.7,9.7,0,0,0-.25,1.83c0,.44-.19.67-.82.81C1,28.13.79,28,.78,28,.5,26.54.55,25.2.28,23.75c-.06-.29-.16-.57-.25-.86C-.14,22.32.52,21.67,1.54,21.66Z" transform="translate(0 0)" fill="#020202"/><path d="M.82,5.42C.67,4.57.57,3.16.46,2.57A8.74,8.74,0,0,1,.19.83C.2.55.55.23.85,0c.09-.06.49.13.74.21,1.09.33.7,1.05.71,1.68S2,4.32,2,5s-.17.87-1.07.59C.81,5.53.76,5.33.82,5.42Z" transform="translate(0 0)" fill="#020202"/><path d="M6.11,48.12a9.36,9.36,0,0,1-2.89-1.63,4.65,4.65,0,0,1-.81-.85,5.78,5.78,0,0,1-.67-1,3.94,3.94,0,0,1-.26-.55c-.08-.19.42-.81.75-.95s1.07-.14,1.14,0,.12.23.18.35a10.77,10.77,0,0,0,2.53,3.25,3.47,3.47,0,0,1,.62.5c.06.09-.07.44-.21.61A.72.72,0,0,1,6.11,48.12Z" transform="translate(0 0)" fill="#020202"/><path d="M10.5,49.28a1,1,0,0,1,1.21-.46c.8.09,1.66.33,2.51.5a7.83,7.83,0,0,0,1.76.39c.44,0,.65.21.77.84a.38.38,0,0,1-.13.29,31.42,31.42,0,0,1-4.35.1c-.3,0-.62.06-.94.08C10.67,51.06,10.16,50.26,10.5,49.28Z" transform="translate(0 0)" fill="#020202"/><path d="M.71,37.94C.5,37.07.38,35.66.28,35.06A8.09,8.09,0,0,1,0,33.32c0-.28.37-.6.66-.82.09-.06.49.13.75.21,1.08.33.69,1,.7,1.68s-.33,2.41-.25,3-.12.85-1,.66C.7,38.06.64,37.86.71,37.94Z" transform="translate(0 0)" fill="#020202"/><path d="M28.42,50.07c-.07-1.47-9.13-5.62-9.71-5s-.29,10.14.55,10.9C19.77,56.46,28.49,51.38,28.42,50.07Z" transform="translate(0 0)" fill="#010101"/></svg>