<svg xmlns="http://www.w3.org/2000/svg" viewBox="0 0 29.44 196.81"><path d="M29.3,192.33a25.62,25.62,0,0,1-.38-2.86c-.07-.49-.17-1.07-.28-1.65s-.18-1.15-.23-1.61c-.11-.9-.22-1.8-.3-2.7s-.19-1.8-.22-2.71c-.26-5.13-.11-10.31.13-15.5l.29-5.14,0-.4v-.14c.14-2.35.27-4.72.35-7.09,0-1.34.13-4.64.14-4.94.06-.5,0-3.49,0-4s-.17-4.25-.28-5.24c0-1.16-.09-2.32-.16-3.47s-.19-2.61-.36-4.18a41.33,41.33,0,0,0-.73-4.21h0c-.19-.84-.32-1.69-.54-2.53l-.07-.35c-.11-.55-.28-1.17-.46-1.8a47.28,47.28,0,0,0-10.06-19.46c-1.69-1.84-3.24-3.61-3-5.6a10.53,10.53,0,0,1,.81-2.86l1.29-3.09,2.64-6.24c.81-2,1.23-3.34,2.33-6,.46-1.17,1.3-3.39,1.64-4.59a57.05,57.05,0,0,0,1.29-5.65A39.75,39.75,0,0,0,23,52.8l-.47-2c-.2-.66-.36-1.34-.59-2a18,18,0,0,0-2.89-5.72,37.76,37.76,0,0,0-4-4.35c-2.58-2.42-5.52-4.14-7.89-6.35A12.69,12.69,0,0,1,3,19.51c.09-.35.16-.7.27-1.05l.38-1c.22-.69.56-1.35.8-2A23.72,23.72,0,0,1,7,10.7c1-1.49,2.12-2.9,3.36-4.45,1-1.26,3.36-4.45,3.38-5.11,0-.39-.52-.3-.55-.68,0-.85-2.56.24-4,2A59,59,0,0,0,4.81,8.38a33.42,33.42,0,0,0-3.6,6.89A23.9,23.9,0,0,0,0,21.41,17.23,17.23,0,0,0,1,28.1,20.69,20.69,0,0,0,2.1,30.49a13.51,13.51,0,0,0,1.59,2.16,28.46,28.46,0,0,0,3.83,3.5c2.9,2.31,5.92,4.26,8.08,6.9a22.73,22.73,0,0,1,4.47,9.19,36.08,36.08,0,0,1,.74,13.17c-.8,6-2.93,11.89-5.27,17.66L12,91.77a15.35,15.35,0,0,0-1.38,4.92,6.78,6.78,0,0,0,.48,2.83,10.07,10.07,0,0,0,1.34,2.32c1,1.37,2.11,2.45,3,3.65A40.1,40.1,0,0,1,18,109.2a38.51,38.51,0,0,1,4.61,10.25l.15.6h0l0,.1c.51,1.85,1.07,4,1.48,5.87a79.21,79.21,0,0,1,1.41,11.79c.21,4.55.32,9.19.16,13.68-.29,8.49-1,17-.9,25.65a91.5,91.5,0,0,0,.63,14.28,17.59,17.59,0,0,0,.91,3.46,17.08,17.08,0,0,0,.67,1.68.67.67,0,0,0,.9.35,2.6,2.6,0,0,0,1.13-1.62A6.18,6.18,0,0,0,29.3,192.33Z" transform="translate(0 -0.16)" /></svg>